<?xml version="1.0" standalone="no"?>
<!DOCTYPE svg PUBLIC "-//W3C//DTD SVG 20010904//EN"
 "http://www.w3.org/TR/2001/REC-SVG-20010904/DTD/svg10.dtd">
<svg version="1.0" xmlns="http://www.w3.org/2000/svg"
 width="1600.000000pt" height="1200.000000pt" viewBox="0 0 1600.000000 1200.000000"
 preserveAspectRatio="xMidYMid meet">

<g transform="translate(0.000000,1200.000000) scale(0.100000,-0.100000)"
fill="#000000" stroke="none">
<path d="M0 6000 l0 -6000 8000 0 8000 0 0 6000 0 6000 -8000 0 -8000 0 0
-6000z m5770 2278 c123 -123 210 -207 192 -188 -39 44 -40 50 -4 51 l27 1 -25
8 -25 8 27 1 c19 1 32 10 45 31 11 20 26 30 43 31 l25 1 -25 8 -25 8 27 1 c18
1 34 10 44 26 11 17 25 25 45 25 19 0 34 8 45 25 10 16 26 25 43 26 l26 1 -25
8 -25 8 27 1 c20 1 32 9 43 31 11 21 23 30 40 30 32 0 41 17 13 23 -21 4 -20
4 3 6 15 0 29 8 33 16 3 8 18 15 33 16 l28 1 -25 8 c-17 5 3 8 61 9 l86 1 379
-372 c208 -205 365 -357 348 -338 -30 33 -31 36 -15 53 10 9 23 17 30 17 6 0
21 16 32 35 13 22 29 35 42 36 21 0 21 1 2 9 -18 8 -17 9 7 9 17 1 29 8 33 21
4 12 16 20 28 21 21 0 21 1 2 9 -19 8 -19 9 3 9 15 1 27 12 39 36 11 23 24 35
37 35 17 0 18 2 6 10 -13 8 -13 10 2 10 10 0 22 9 28 20 6 11 18 20 28 20 15
0 15 2 2 10 -12 8 -11 10 6 10 14 0 26 10 34 30 8 20 20 30 34 30 17 0 18 2 6
10 -13 8 -12 10 3 10 9 0 23 11 29 25 6 14 18 25 27 25 39 0 185 -137 771
-724 l625 -626 452 452 452 452 57 -39 c79 -55 152 -122 171 -158 20 -39 20
-115 -1 -159 -9 -19 -177 -194 -374 -390 -315 -315 -362 -358 -401 -368 -56
-15 -111 -5 -158 29 -112 81 -281 150 -431 176 -107 19 -318 19 -414 1 -403
-77 -726 -380 -835 -781 -24 -90 -27 -116 -27 -270 1 -151 3 -181 26 -266 79
-293 276 -543 531 -675 169 -87 318 -124 502 -124 224 0 415 59 608 188 50 33
80 46 116 50 96 9 97 8 492 -387 341 -341 367 -369 379 -415 15 -56 3 -121
-30 -163 -58 -74 -324 -254 -514 -347 -344 -168 -662 -241 -1056 -240 -385 1
-695 72 -1035 239 -333 163 -626 402 -846 691 l-73 95 449 449 c247 247 446
453 442 457 -4 4 -211 -195 -460 -442 l-452 -450 450 452 450 453 -365 367
c-201 203 -822 827 -1381 1388 -559 561 -1022 1031 -1029 1044 -18 35 -15 112
5 155 20 41 63 75 109 86 17 5 164 8 326 9 l295 1 225 -222z m4230 -421 c0 -1
-204 -205 -452 -452 l-453 -450 450 453 c418 420 455 456 455 449z"/>
<path d="M9160 6895 c13 -14 26 -25 28 -25 3 0 -5 11 -18 25 -13 14 -26 25
-28 25 -3 0 5 -11 18 -25z"/>
</g>
</svg>
