<?xml version="1.0" standalone="no"?>
<!DOCTYPE svg PUBLIC "-//W3C//DTD SVG 20010904//EN"
 "http://www.w3.org/TR/2001/REC-SVG-20010904/DTD/svg10.dtd">
<svg version="1.0" xmlns="http://www.w3.org/2000/svg"
 width="400.000000pt" height="400.000000pt" viewBox="0 0 400.000000 400.000000"
 preserveAspectRatio="xMidYMid meet">
<metadata>
Created by potrace 1.16, written by Peter Selinger 2001-2019
</metadata>
<g transform="translate(0.000000,400.000000) scale(0.100000,-0.100000)"
fill="#000000" stroke="none">
<path d="M0 2000 l0 -2000 1239 0 1239 0 -5 97 c-2 54 0 125 6 158 9 55 10 51
6 -48 -2 -59 -1 -130 2 -158 l6 -49 753 0 754 0 0 2000 0 2000 -2000 0 -2000
0 0 -2000z m2003 1086 c9 -7 17 -18 17 -25 0 -6 7 -11 15 -11 8 0 15 -5 15
-11 0 -5 -8 -9 -17 -7 -19 3 -66 -25 -57 -34 6 -7 -38 -19 -84 -23 -27 -3 -31
-1 -21 11 9 11 8 14 -8 14 -16 0 -19 5 -15 26 4 20 2 25 -8 19 -8 -5 -11 -3
-8 5 13 40 133 65 171 36z m-426 -166 c6 -13 25 -29 43 -36 27 -12 33 -11 50
6 16 16 20 17 31 4 6 -8 9 -17 6 -21 -4 -3 3 -17 13 -31 11 -13 20 -31 20 -38
0 -17 17 -19 22 -2 2 6 11 -4 20 -23 16 -31 16 -35 1 -43 -12 -6 -21 -3 -32
11 -24 28 -44 33 -86 19 -37 -13 -58 -33 -49 -48 3 -4 -1 -5 -9 -2 -8 3 -20
17 -28 32 -8 15 -22 36 -31 46 -20 23 -22 32 -8 41 20 12 10 43 -15 49 -31 8
-32 23 -3 48 26 22 39 19 55 -12z m633 -123 c0 -10 7 -20 16 -24 8 -3 13 -12
10 -19 -3 -9 2 -14 13 -14 20 0 48 -27 38 -36 -3 -3 3 -22 14 -41 11 -19 15
-32 9 -28 -16 10 -12 -11 12 -50 17 -31 19 -38 7 -46 -11 -7 -12 -12 -2 -28
10 -16 8 -27 -7 -60 -24 -49 -24 -52 -2 -45 10 4 13 3 6 -3 -19 -13 -44 -82
-37 -100 4 -10 -1 -21 -13 -30 -15 -11 -16 -17 -7 -32 8 -13 8 -22 1 -29 -14
-14 -5 -135 10 -140 20 -6 14 -70 -8 -89 -11 -10 -20 -22 -20 -28 0 -6 -16
-17 -35 -24 -19 -7 -33 -16 -30 -21 3 -5 1 -11 -5 -15 -5 -3 -10 -15 -10 -26
0 -10 -3 -19 -7 -19 -5 0 -17 -13 -27 -29 -15 -21 -33 -32 -75 -42 -93 -22
-145 -7 -157 45 -3 17 -10 33 -14 36 -16 10 -15 89 1 102 22 19 44 49 33 47
-21 -4 -34 2 -34 16 0 19 25 44 72 73 21 13 59 41 85 63 26 21 53 39 61 39 23
0 -5 37 -34 44 -19 5 -32 2 -48 -13 -33 -30 -71 -41 -173 -48 -67 -4 -93 -3
-93 5 0 7 5 12 12 12 7 0 -6 19 -28 43 -22 23 -48 54 -58 70 -19 30 -17 32 46
40 29 4 37 2 41 -13 8 -29 74 -23 97 10 17 24 25 80 10 80 -4 0 -15 18 -25 41
-11 22 -33 53 -51 67 -17 15 -35 41 -38 58 l-7 32 48 -2 c36 -2 49 -7 51 -19
4 -21 26 -22 46 -2 18 19 30 19 23 1 -4 -9 3 -16 19 -20 28 -7 47 0 41 17 -5
16 29 51 42 42 6 -3 11 1 11 9 0 9 7 16 15 16 8 0 15 -7 15 -15 0 -8 4 -15 10
-15 5 0 7 6 4 14 -3 8 0 17 5 21 6 3 9 11 5 16 -3 6 8 15 24 21 32 12 50 57
29 70 -5 3 1 8 14 10 13 1 24 10 25 18 2 31 5 35 14 20 5 -8 10 -23 10 -33z
m455 -639 c2 -18 -2 -42 -7 -53 -10 -18 -9 -18 10 2 12 12 31 36 42 55 27 44
25 33 -10 -81 -62 -202 -87 -345 -115 -656 -9 -99 -20 -184 -25 -188 -8 -9
-94 46 -143 92 -36 33 -60 78 -47 86 6 3 10 19 10 34 0 54 39 180 88 284 28
58 47 108 44 111 -3 3 -1 6 5 6 6 0 16 14 22 30 7 23 7 29 -1 24 -8 -5 -9 -1
-4 12 5 10 15 42 22 70 8 28 30 82 49 120 19 38 35 78 35 89 0 32 23 1 25 -37z
m-134 -1305 c-6 -77 -11 -178 -11 -225 0 -103 -9 -162 -21 -133 -5 14 -8 7 -8
-25 0 -28 2 -40 8 -32 5 8 6 -8 4 -40 -7 -81 -9 -80 -24 17 -16 101 -16 314 0
360 10 28 9 -10 -3 -163 0 -9 7 -18 17 -20 16 -3 17 -1 8 16 -11 20 -10 36 9
227 14 130 20 168 27 162 2 -3 0 -68 -6 -144z"/>
</g>
</svg>
